<?xml version="1.0" encoding="UTF-8" standalone="no"?><!DOCTYPE svg PUBLIC "-//W3C//DTD SVG 1.1//EN" "http://www.w3.org/Graphics/SVG/1.1/DTD/svg11.dtd"><svg width="100%" height="100%" viewBox="0 0 135 135" version="1.1" xmlns="http://www.w3.org/2000/svg" xmlns:xlink="http://www.w3.org/1999/xlink" xml:space="preserve" xmlns:serif="http://www.serif.com/" style="fill-rule:evenodd;clip-rule:evenodd;stroke-linejoin:round;stroke-miterlimit:1.41421;"><ellipse cx="67.465" cy="67.465" rx="67.465" ry="67.465" style="fill:#8c000d;"/><path d="M107.256,29.313c-1.492,-0.618 -2.764,-0.362 -3.82,0.766l-7.096,7.039c-3.895,-3.673 -8.341,-6.522 -13.345,-8.54c-5.005,-2.019 -10.18,-3.03 -15.527,-3.03c-5.68,0 -11.099,1.11 -16.267,3.331c-5.165,2.217 -9.624,5.201 -13.373,8.949c-3.745,3.749 -6.731,8.207 -8.949,13.372c-2.221,5.168 -3.33,10.589 -3.33,16.267c0,5.675 1.109,11.095 3.33,16.264c2.221,5.168 5.204,9.623 8.949,13.372c3.749,3.744 8.208,6.731 13.373,8.949c5.168,2.22 10.587,3.33 16.267,3.33c6.256,0 12.207,-1.319 17.846,-3.958c5.639,-2.636 10.444,-6.356 14.409,-11.161c0.291,-0.363 0.428,-0.772 0.408,-1.227c-0.016,-0.454 -0.189,-0.827 -0.516,-1.118l-7.477,-7.534c-0.403,-0.327 -0.854,-0.49 -1.364,-0.49c-0.583,0.072 -1.002,0.291 -1.257,0.657c-2.656,3.458 -5.911,6.131 -9.77,8.024c-3.857,1.891 -7.949,2.836 -12.279,2.836c-3.785,0 -7.396,-0.736 -10.835,-2.211c-3.437,-1.472 -6.414,-3.464 -8.923,-5.976c-2.508,-2.509 -4.501,-5.486 -5.976,-8.924c-1.476,-3.437 -2.211,-7.048 -2.211,-10.833c0,-3.785 0.739,-7.396 2.211,-10.834c1.472,-3.438 3.464,-6.415 5.976,-8.923c2.512,-2.512 5.486,-4.505 8.923,-5.976c3.439,-1.475 7.05,-2.211 10.835,-2.211c7.313,0 13.662,2.492 19.05,7.477l-7.536,7.53c-1.126,1.093 -1.381,2.348 -0.763,3.765c0.619,1.455 1.691,2.185 3.222,2.185l24.451,0c0.945,0 1.763,-0.347 2.457,-1.037c0.69,-0.69 1.033,-1.511 1.033,-2.457l0,-24.451c0,-1.527 -0.706,-2.6 -2.126,-3.222Z" style="fill:#ffbe00;"/></svg>